<svg xmlns="http://www.w3.org/2000/svg"
  viewBox="0 -30 1432 751" width="1432" height="751"
  fill="currentColor">
  <g transform="translate(170,280) rotate(1) scale(1.08,0.94) translate(-170,-282)">
    <g transform="translate(0.000000,691.000000) scale(0.100000,-0.100000)" stroke="none">
      <path d="M755 6309 c-16 -5 -52 -14 -78 -19 -105 -21 -141 -73 -135 -195 6
-116 43 -192 173 -357 22 -28 47 -61 55 -73 9 -13 63 -80 120 -150 58 -70 116
-144 129 -164 13 -20 38 -52 56 -71 38 -42 105 -140 105 -156 0 -7 -17 -8 -52
-3 -237 34 -326 -36 -359 -278 -18 -137 3 -1697 31 -2298 9 -176 28 -486 52
-854 l3 -33 -180 -62 c-420 -145 -495 -195 -495 -332 0 -109 56 -186 180 -249
149 -76 241 -75 498 1 170 51 156 63 174 -146 14 -170 21 -180 117 -180 183 0
382 262 370 485 l-4 66 100 45 c385 175 489 230 623 328 91 67 191 170 237
244 47 77 42 79 98 -31 310 -603 992 -627 1373 -48 16 24 37 55 46 70 36 53
25 99 -60 259 -43 81 -105 203 -137 272 -70 151 -69 150 -111 150 -29 0 -35
-4 -40 -28 -3 -15 -9 -38 -14 -52 -4 -14 -13 -45 -20 -70 -55 -204 -150 -358
-252 -411 -49 -25 -46 -25 -115 21 -319 213 -431 1053 -217 1635 14 39 29 84
33 100 4 17 15 44 24 62 32 62 24 84 -74 205 -50 62 -116 152 -147 200 -91
142 -120 128 -212 -103 -47 -117 -116 -322 -126 -374 -8 -45 -22 -45 -29 0 -3
19 -8 52 -11 73 -33 213 -239 678 -456 1032 -32 52 -66 108 -76 124 -9 16
-111 171 -227 344 -115 173 -223 335 -240 361 -16 26 -51 76 -78 111 -26 36
-77 107 -115 158 -254 351 -377 441 -537 391z m598 -1416 c209 -321 242 -376
346 -578 49 -97 91 -185 105 -221 7 -22 32 -79 53 -129 22 -49 50 -125 62
-167 l22 -77 -19 -45 c-26 -58 -68 -85 -216 -135 -152 -53 -299 -83 -385 -79
l-66 3 -3 345 c-2 190 2 482 10 650 7 168 13 356 13 418 0 61 3 112 7 112 5 0
36 -44 71 -97z m1086 -1643 c-26 -186 -33 -195 -113 -135 -50 39 -55 56 -28
96 22 32 145 169 153 169 3 0 -3 -59 -12 -130z m-788 -460 c194 -65 309 -173
370 -349 74 -214 -110 -413 -506 -546 -119 -40 -106 -57 -130 180 -8 88 -24
234 -36 325 -40 332 -46 395 -40 402 35 37 213 30 342 -12z"/>
    </g>
  </g>
  <g transform="translate(330,210) rotate(-1) scale(1.06,0.95) translate(-330,-208)">
    <g transform="translate(0.000000,691.000000) scale(0.100000,-0.100000)" stroke="none">
      <path d="M4065 5338 c-52 -74 -70 -104 -127 -208 -66 -122 -107 -228 -134
-347 -18 -82 -19 -83 -69 -48 -153 103 -429 100 -608 -6 -155 -92 -367 -354
-367 -455 0 -46 78 -168 209 -326 107 -129 133 -134 181 -34 38 80 132 176
208 212 77 36 112 28 180 -42 97 -100 113 -85 273 266 157 346 339 867 339
971 0 48 -55 59 -85 17z"/>
    </g>
  </g>
  <g transform="translate(450,260) rotate(2) scale(1.07,0.93) translate(-450,-263)">
    <g transform="translate(0.000000,691.000000) scale(0.100000,-0.100000)" stroke="none">
      <path d="M4612 5735 c-161 -37 -312 -131 -441 -276 -37 -41 -46 -64 -95 -230
-108 -365 -236 -690 -406 -1028 -78 -157 -82 -181 -50 -273 27 -76 55 -211 72
-338 18 -143 18 -752 0 -830 -46 -196 -36 -242 123 -560 128 -256 134 -265
181 -267 l39 -2 31 67 c65 137 143 363 159 459 9 59 13 59 91 7 95 -64 148
-86 203 -82 l44 3 104 310 c57 170 103 324 103 342 l0 33 -52 0 c-112 0 -220
87 -286 230 -38 82 -60 154 -96 310 -17 70 -41 273 -51 435 -12 177 33 526 86
665 11 30 24 66 28 80 54 168 254 370 368 370 31 0 171 -75 211 -113 84 -80
164 -288 207 -539 5 -35 8 -38 40 -38 l33 0 131 393 c152 456 151 447 85 549
-99 152 -236 259 -394 309 -86 28 -371 36 -468 14z"/>
    </g>
  </g>
  <g transform="translate(570,300) rotate(-1) scale(1.05,0.96) translate(-570,-299)">
    <g transform="translate(0.000000,691.000000) scale(0.100000,-0.100000)" stroke="none">
      <path d="M5782 5664 c-97 -50 -142 -195 -142 -459 0 -85 -10 -94 -35 -32 -32
82 -62 117 -99 117 l-34 0 -136 -408 -136 -407 0 -158 c0 -144 -13 -277 -40
-405 -11 -54 -19 -83 -55 -207 -25 -84 -37 -118 -86 -255 -72 -197 -157 -323
-245 -362 l-42 -18 -107 -320 c-121 -362 -123 -379 -60 -393 151 -33 336 11
485 116 77 54 280 249 280 268 0 5 13 23 28 41 16 18 49 68 74 111 l45 79 37
-51 c141 -191 166 -189 379 33 189 198 192 203 128 264 -127 122 -129 463 -4
927 57 212 114 420 152 555 206 725 149 967 -234 977 -97 3 -126 1 -153 -13z
M6739 5571 c-47 -10 -122 -64 -153 -112 -64 -96 -55 -277 34 -645 17 -71 37
-158 45 -194 8 -36 35 -152 60 -258 25 -107 50 -226 56 -265 5 -40 20 -115 33
-167 l23 -95 35 -3 c28 -2 46 6 96 42 l62 46 0 793 c0 886 7 803 -70 842 -39
20 -161 29 -221 16z M4690 1869 c-109 -33 -187 -187 -178 -350 7 -127 63 -189
171 -189 l55 0 61 114 c33 63 88 161 121 216 83 141 84 170 1 193 -78 22 -187
29 -231 16z"/>
    </g>
  </g>
  <g transform="translate(670,410) rotate(1) scale(1.06,0.95) translate(-670,-411)">
    <g transform="translate(0.000000,691.000000) scale(0.100000,-0.100000)" stroke="none">
      <path d="M6901 3902 l-54 -37 6 -78 c4 -44 13 -104 21 -136 20 -81 32 -136 67
-324 52 -273 42 -282 -271 -281 -237 1 -461 41 -542 98 -13 9 -43 16 -69 16
l-47 0 -161 -167 c-221 -230 -220 -240 19 -355 169 -81 326 -104 658 -95 491
14 544 -29 462 -378 -87 -376 -170 -410 -980 -410 -509 0 -689 11 -890 51
-187 38 -158 60 -337 -261 -131 -236 -133 -233 144 -265 797 -91 1982 -34
2245 107 117 63 328 321 328 401 0 21 19 13 81 -37 112 -90 281 -157 376 -149
l38 3 47 225 c26 124 47 249 48 277 l0 53 -62 31 c-84 42 -172 136 -254 271
-116 192 -143 283 -152 523 l-7 170 -84 125 c-109 161 -279 394 -398 543 -111
140 -132 147 -232 79z"/>
    </g>
  </g>
  <g transform="translate(830,300) rotate(-2) scale(1.08,0.93) translate(-830,-298)">
    <g transform="translate(0.000000,691.000000) scale(0.100000,-0.100000)" stroke="none">
      <path d="M9365 5854 c-160 -84 -282 -230 -316 -379 -13 -52 -15 -2273 -2
-2362 9 -70 46 -62 185 40 63 45 160 114 217 152 l103 70 -6 90 c-39 540 -33
1204 15 1785 31 379 35 547 12 590 -25 49 -129 56 -208 14z M6990 4690 l0
-782 104 -131 c135 -173 272 -360 381 -524 84 -126 90 -133 121 -133 27 0 35
5 38 23 18 88 31 136 48 181 11 28 23 63 28 78 30 98 175 258 299 330 335 198
423 102 441 -476 9 -300 8 -308 -56 -330 -24 -9 -65 -23 -91 -33 -118 -41
-175 -175 -159 -371 17 -204 62 -212 249 -44 156 139 326 282 495 416 142 113
133 86 107 311 -9 72 -22 345 -30 609 -40 1306 -102 1464 -570 1460 -212 -2
-310 -28 -590 -156 -409 -187 -468 -258 -415 -498 56 -250 220 -246 535 15
218 180 394 135 461 -119 21 -80 9 -96 -73 -96 -298 0 -567 -92 -813 -276
-122 -92 -115 -96 -145 82 -13 77 -29 164 -35 194 -6 30 -26 143 -46 250 -106
594 -167 792 -246 798 l-38 3 0 -781z"/>
    </g>
  </g>
  <g transform="translate(960,470) rotate(1) scale(1.05,0.96) translate(-960,-472)">
    <g transform="translate(0.000000,691.000000) scale(0.100000,-0.100000)" stroke="none">
      <path d="M9975 3508 c-3 -7 -12 -33 -20 -58 -50 -144 -145 -243 -299 -313 -76
-35 -86 -34 -86 5 0 17 -5 83 -11 145 l-12 113 -34 0 c-27 0 -62 -19 -166 -92
-257 -179 -292 -207 -297 -242 -5 -28 -9 -31 -47 -34 -54 -4 -339 -230 -672
-532 -160 -146 -153 -194 33 -219 89 -13 94 -15 80 -39 -30 -50 -147 -82 -315
-86 l-73 -1 -47 -230 c-27 -126 -48 -251 -49 -277 l0 -48 138 0 c75 0 187 7
247 15 151 20 154 20 160 -12 42 -201 144 -360 324 -505 128 -103 217 -127
262 -71 36 46 15 702 -37 1133 -22 182 -22 175 1 175 25 0 44 -132 74 -525 41
-525 87 -736 179 -824 30 -28 33 -28 119 -24 320 16 366 270 223 1228 -5 36
-18 109 -28 163 -22 115 -27 109 93 131 393 71 622 -109 625 -491 0 -57 62
-30 126 55 137 184 385 473 493 577 64 61 59 87 -36 174 -95 88 -134 96 -160
34 -8 -21 -17 -40 -19 -42 -2 -2 -27 14 -56 37 -76 58 -269 142 -328 142 -5 0
-21 5 -35 10 l-27 10 71 76 c96 103 98 128 8 199 -308 246 -384 292 -402 243z"/>
    </g>
  </g>
  <g transform="translate(1130,260) rotate(2) scale(1.04,0.97) translate(-1130,-263)">
    <g transform="translate(0.000000,691.000000) scale(0.100000,-0.100000)" stroke="none">
      <path d="M13393 6733 c-48 -9 -116 -135 -149 -273 -21 -85 -33 -2412 -14
-2554 17 -130 141 -187 286 -131 139 53 149 95 199 840 17 245 66 818 90 1050
51 490 59 595 59 740 1 231 -34 293 -182 321 -63 12 -240 17 -289 7z M10316
6699 c-111 -59 -223 -167 -262 -252 -108 -237 -137 -869 -84 -1817 44 -777 43
-747 29 -945 l-13 -189 40 -32 c332 -273 415 -320 448 -256 65 126 79 410 36
742 -5 41 -16 127 -24 190 -30 230 -36 277 -45 395 -45 539 3 1402 99 1781 80
315 54 404 -117 404 -50 0 -79 -6 -107 -21z M11675 4394 c-148 -21 -382 -67
-470 -93 -16 -4 -50 -14 -75 -21 -134 -37 -292 -130 -327 -192 -19 -35 -16
-146 6 -193 74 -162 266 -208 486 -116 211 89 232 95 335 96 251 1 411 -140
432 -381 l3 -39 -185 -7 c-192 -6 -264 -15 -365 -43 -33 -9 -73 -20 -90 -25
-249 -65 -625 -369 -625 -506 0 -38 5 -45 84 -117 l84 -76 153 -31 c202 -39
206 -39 254 11 113 116 359 197 616 202 137 3 128 20 131 -256 l3 -231 75 -29
c41 -16 149 -61 239 -98 107 -45 177 -69 202 -69 46 0 43 -25 29 230 -5 102
-14 334 -20 515 -18 580 -50 836 -124 1005 -13 30 -31 72 -39 92 -16 36 -51
86 -125 176 -43 53 -161 135 -246 170 -60 26 -331 41 -441 26z M13485 3614
c-227 -47 -361 -129 -534 -330 -207 -241 -232 -494 -68 -681 127 -145 613
-101 897 82 365 233 479 643 232 827 -121 89 -361 136 -527 102z M13598 2466
c-55 -20 -128 -65 -178 -111 -25 -23 -67 -59 -95 -80 -27 -22 -71 -57 -96 -80
-26 -22 -66 -54 -90 -71 -116 -81 -119 -83 -119 -119 0 -30 5 -37 58 -66 31
-18 127 -74 213 -126 215 -128 231 -126 420 60 121 118 133 147 137 317 6 235
-84 335 -250 276z"/>
    </g>
  </g>
  <g transform="translate(1080,550) rotate(2) scale(1.04,0.97) translate(-1080,-553)">
    <g transform="translate(0.000000,691.000000) scale(0.100000,-0.100000)" stroke="none">
      <path d="M10879 2623 c-160 -163 -296 -323 -462 -540 -84 -112 -85 -113 -92
-185 -14 -156 -47 -334 -102 -548 -14 -52 -29 -111 -33 -130 -5 -19 -16 -60
-25 -90 -9 -30 -26 -89 -36 -130 -11 -41 -25 -91 -30 -110 -99 -349 -133 -620
-85 -678 l28 -32 96 0 c234 0 332 75 472 360 91 183 114 250 149 428 21 103
27 116 43 87 24 -46 174 -182 231 -208 169 -79 337 -109 617 -111 242 -1 340
19 518 107 49 25 74 32 76 24 82 -286 188 -355 390 -253 227 115 291 331 171
570 -24 48 -24 52 -8 64 25 19 192 126 307 197 53 33 145 93 204 132 59 40
124 82 145 93 35 19 38 24 35 58 -4 43 -18 53 -269 201 -195 114 -192 113
-331 27 -99 -60 -181 -106 -193 -106 -3 0 -6 51 -6 113 -1 61 -4 143 -8 181
l-6 70 -100 43 c-211 93 -375 153 -415 153 l-40 0 0 -453 c0 -513 7 -471 -88
-536 -269 -182 -521 -172 -710 28 -51 53 -63 72 -117 181 -124 248 -78 697 96
942 13 18 19 40 17 60 l-3 33 -135 27 c-206 41 -189 45 -301 -69z"/>
    </g>
  </g>
</svg>